<svg xmlns="http://www.w3.org/2000/svg" width="current" viewBox="0 0 31.79 28.841">
    <g data-name="Group 1115">
        <path data-name="Path 21" d="M102.745 218.563c.1-.254.194-.508.31-.751a7.418 7.418 0 0 1 5.537-4.342 7.621 7.621 0 0 1 8.931 6.2 8.579 8.579 0 0 1 .042 2.513 14.317 14.317 0 0 1-2.541 6.372 28.307 28.307 0 0 1-3.01 3.7 47.534 47.534 0 0 1-2.88 2.781c-1.385 1.23-2.869 2.337-4.314 3.493-.649.515-1.3 1.026-1.953 1.544a.16.16 0 0 1-.247 0c-1.628-1.29-3.271-2.562-4.889-3.867a42.91 42.91 0 0 1-4.42-4.124 25.873 25.873 0 0 1-3.588-4.705A13.7 13.7 0 0 1 88 222.8a8.376 8.376 0 0 1 .342-4.561 7.549 7.549 0 0 1 4.371-4.4 7.368 7.368 0 0 1 3.25-.5 7.641 7.641 0 0 1 6.75 5.2z" transform="translate(-86.846 -212.315)" style="fill:current;stroke:current;stroke-linecap:round;stroke-linejoin:round;stroke-width:2px"/>
    </g>
</svg>